<?xml version="1.0" encoding="utf-8"?>
<svg viewBox="0 0 500 500" xmlns="http://www.w3.org/2000/svg">
  <path d="M 347.356 94.612 C 349.693 94.823 353.519 94.823 355.856 94.612 C 358.193 94.402 356.281 94.229 351.606 94.229 C 346.931 94.229 345.019 94.402 347.356 94.612 M 323.356 114.612 C 325.693 114.823 329.519 114.823 331.856 114.612 C 334.193 114.402 332.281 114.229 327.606 114.229 C 322.931 114.229 321.019 114.402 323.356 114.612 M 328.998 139.88 C 328.998 147.305 329.155 150.343 329.348 146.63 C 329.54 142.917 329.54 136.843 329.348 133.13 C 329.155 129.417 328.998 132.455 328.998 139.88 M 273.356 134.587 L 278.606 134.985 L 278.606 144.377 L 278.606 153.77 L 274.356 154.157 L 270.106 154.543 L 274.606 154.462 L 279.106 154.38 L 279.106 144.38 L 279.106 134.38 L 273.606 134.285 L 268.106 134.189 L 273.356 134.587 M 304.856 134.615 C 307.468 134.821 311.744 134.821 314.356 134.615 C 316.968 134.409 314.831 134.24 309.606 134.24 C 304.381 134.24 302.243 134.409 304.856 134.615 M 307.356 154.623 C 311.343 154.812 317.869 154.812 321.856 154.623 C 325.843 154.433 322.581 154.277 314.606 154.277 C 306.631 154.277 303.368 154.433 307.356 154.623 M 255.395 174.621 C 258.854 174.817 264.254 174.816 267.395 174.618 C 270.536 174.42 267.706 174.26 261.106 174.262 C 254.506 174.264 251.936 174.426 255.395 174.621 M 109.606 184.38 L 109.606 193.88 L 139.106 193.88 L 168.606 193.88 L 168.606 184.38 L 168.606 174.88 L 139.106 174.88 L 109.606 174.88 L 109.606 184.38 M 279.049 184.628 L 279.106 194.38 L 288.606 194.434 L 298.106 194.489 L 288.892 194.148 L 279.678 193.808 L 279.334 184.342 L 278.991 174.875 L 279.049 184.628 M 329.001 188.38 C 329.002 196.08 329.159 199.098 329.349 195.086 C 329.54 191.075 329.538 184.775 329.347 181.086 C 329.155 177.398 328.999 180.68 329.001 188.38 M 89.728 204.38 L 89.501 213.88 L 99.554 213.88 L 109.606 213.88 L 109.606 204.38 L 109.606 194.88 L 99.781 194.88 L 89.955 194.88 L 89.728 204.38 M 329.491 204.17 C 329.928 204.604 334.52 204.826 339.696 204.663 L 349.106 204.367 L 338.902 203.873 C 333.289 203.602 329.055 203.735 329.491 204.17 M 69.818 224.13 L 70.106 233.38 L 79.856 233.666 L 89.606 233.952 L 89.606 224.416 L 89.606 214.88 L 79.568 214.88 L 69.531 214.88 L 69.818 224.13 M 354.39 224.618 C 357.295 224.821 361.795 224.819 364.39 224.614 C 366.984 224.408 364.606 224.243 359.106 224.245 C 353.606 224.248 351.484 224.416 354.39 224.618 M 374.39 234.618 C 377.295 234.821 381.795 234.819 384.39 234.614 C 386.984 234.408 384.606 234.243 379.106 234.245 C 373.606 234.248 371.484 234.416 374.39 234.618 M 49.797 242.936 C 49.365 254.913 48.923 254.435 60.092 254.061 L 69.606 253.743 L 69.606 244.311 L 69.606 234.88 L 59.847 234.88 L 50.088 234.88 L 49.797 242.936 M 399.409 254.626 C 405.076 254.805 414.076 254.804 419.409 254.625 C 424.742 254.445 420.106 254.299 409.106 254.3 C 398.106 254.301 393.742 254.448 399.409 254.626 M 129.834 334.13 L 130.106 353.38 L 139.856 353.666 L 149.606 353.952 L 149.602 348.666 C 149.6 345.759 149.305 336.967 148.947 329.13 L 148.295 314.88 L 138.929 314.88 L 129.563 314.88 L 129.834 334.13" stroke="none" fill="#fc7523" fill-rule="evenodd"/>
  <path d="M 139.606 174.622 L 168.606 174.91 L 168.606 184.895 L 168.606 194.88 L 178.606 194.88 L 188.606 194.88 L 188.606 204.88 L 188.606 214.88 L 198.606 214.88 L 208.606 214.88 L 208.606 224.88 L 208.606 234.88 L 218.606 234.88 L 228.606 234.88 L 228.606 243.865 L 228.606 252.85 L 198.856 253.115 L 169.106 253.38 L 168.82 263.13 L 168.534 272.88 L 109.605 272.88 L 50.676 272.88 L 50.352 262.63 L 50.028 252.38 L 49.817 263.138 L 49.606 273.896 L 109.356 273.638 L 169.106 273.38 L 169.392 263.645 L 169.678 253.91 L 199.392 253.645 L 229.106 253.38 L 229.106 243.88 L 229.106 234.38 L 219.392 234.094 L 209.678 233.808 L 209.392 224.094 L 209.106 214.38 L 199.392 214.094 L 189.678 213.808 L 189.392 204.094 L 189.106 194.38 L 179.392 194.094 L 169.678 193.808 L 169.392 184.094 L 169.106 174.38 L 139.856 174.357 L 110.605 174.334 L 139.606 174.622 M 95.39 194.618 C 98.295 194.821 102.795 194.819 105.39 194.614 C 107.984 194.408 105.606 194.243 100.106 194.245 C 94.606 194.248 92.484 194.416 95.39 194.618 M 75.39 214.618 C 78.295 214.821 82.795 214.819 85.39 214.614 C 87.984 214.408 85.606 214.243 80.106 214.245 C 74.606 214.248 72.484 214.416 75.39 214.618 M 60.106 233.88 L 50.106 234.493 L 59.797 234.686 C 65.398 234.798 69.749 234.458 70.106 233.88 C 70.446 233.33 70.585 232.967 70.415 233.074 C 70.245 233.18 65.606 233.543 60.106 233.88 M 139.068 314.608 L 148.534 314.952 L 148.82 324.666 L 149.106 334.38 L 158.856 334.666 L 168.606 334.952 L 168.606 344.916 L 168.606 354.88 L 178.606 354.88 L 188.606 354.88 L 188.606 363.844 L 188.606 372.808 L 178.856 373.094 L 169.106 373.38 L 168.82 383.13 L 168.534 392.88 L 149.59 392.88 L 130.647 392.88 L 130.355 372.63 L 130.062 352.38 L 129.834 373.151 L 129.606 393.922 L 149.356 393.651 L 169.106 393.38 L 169.392 383.666 L 169.678 373.952 L 179.392 373.666 L 189.106 373.38 L 189.106 363.88 L 189.106 354.38 L 179.392 354.094 L 169.678 353.808 L 169.392 344.094 L 169.106 334.38 L 159.392 334.094 L 149.678 333.808 L 149.392 324.094 L 149.106 314.38 L 139.354 314.323 L 129.601 314.265 L 139.068 314.608" stroke="none" fill="#dd351a" fill-rule="evenodd"/>
  <path d="M 249.606 84.38 L 249.606 94.88 L 239.606 94.88 L 229.606 94.88 L 229.606 104.88 L 229.606 114.88 L 219.594 114.88 L 209.583 114.88 L 209.844 154.13 L 210.106 193.38 L 219.856 193.666 L 229.606 193.952 L 229.606 204.416 L 229.606 214.88 L 219.606 214.88 L 209.606 214.88 L 209.606 224.38 L 209.606 233.88 L 219.641 233.88 L 229.676 233.88 L 229.391 244.13 L 229.106 254.38 L 199.319 254.645 L 169.531 254.91 L 169.819 264.145 L 170.106 273.38 L 209.356 273.642 L 248.606 273.903 L 248.856 223.642 C 248.993 195.998 248.947 164.493 248.754 153.63 L 248.402 133.88 L 264.004 133.88 L 279.606 133.88 L 279.606 143.88 L 279.606 153.88 L 289.106 153.88 L 298.606 153.88 L 298.606 143.88 L 298.606 133.88 L 308.606 133.88 L 318.606 133.88 L 318.606 123.88 L 318.606 113.88 L 328.606 113.88 L 338.606 113.88 L 338.606 103.88 L 338.606 93.88 L 354.106 93.88 L 369.606 93.88 L 369.606 99.38 L 369.606 104.88 L 359.606 104.88 L 349.606 104.88 L 349.606 114.38 L 349.606 123.88 L 359.106 123.88 L 368.606 123.88 L 368.606 118.88 L 368.606 113.88 L 388.606 113.88 L 408.606 113.88 L 408.606 104.38 L 408.606 94.88 L 398.606 94.88 L 388.606 94.88 L 388.606 84.38 L 388.606 73.88 L 319.106 73.88 L 249.606 73.88 L 249.606 84.38 M 409.606 174.88 L 409.606 234.88 L 399.606 234.88 L 389.606 234.88 L 389.606 244.38 L 389.606 253.88 L 409.106 253.88 L 428.606 253.88 L 428.606 184.38 L 428.606 114.88 L 419.106 114.88 L 409.606 114.88 L 409.606 174.88 M 329.391 148.63 C 329.234 161.693 329.23 179.468 329.381 188.13 L 329.657 203.88 L 339.131 203.88 L 348.606 203.88 L 348.606 164.38 L 348.606 124.88 L 339.141 124.88 L 329.675 124.88 L 329.391 148.63 M 369.606 154.38 L 369.606 183.88 L 379.106 183.88 L 388.606 183.88 L 388.606 154.38 L 388.606 124.88 L 379.106 124.88 L 369.606 124.88 L 369.606 154.38 M 110.556 155.38 C 110.528 155.655 110.506 159.255 110.506 163.38 C 110.506 167.505 110.528 171.555 110.556 172.38 C 110.599 173.678 114.517 173.88 139.606 173.88 L 168.606 173.88 L 168.606 164.38 L 168.606 154.88 L 139.606 154.88 C 123.656 154.88 110.584 155.105 110.556 155.38 M 280.031 175.214 C 279.75 175.947 279.652 180.335 279.813 184.964 L 280.106 193.38 L 289.356 193.668 L 298.606 193.955 L 298.606 183.918 L 298.606 173.88 L 289.575 173.88 C 282.97 173.88 280.406 174.238 280.031 175.214 M 90.523 175.292 C 90.294 175.519 90.25 179.794 90.427 184.792 L 90.748 193.88 L 99.677 193.88 L 108.606 193.88 L 108.606 184.38 L 108.606 174.88 L 99.773 174.88 C 94.914 174.88 90.752 175.065 90.523 175.292 M 169.818 184.13 L 170.106 193.38 L 179.356 193.668 L 188.606 193.955 L 188.606 184.418 L 188.606 174.88 L 179.068 174.88 L 169.531 174.88 L 169.818 184.13 M 70.523 195.292 C 70.294 195.519 70.25 199.794 70.427 204.792 L 70.748 213.88 L 79.677 213.88 L 88.606 213.88 L 88.606 204.38 L 88.606 194.88 L 79.773 194.88 C 74.914 194.88 70.752 195.065 70.523 195.292 M 189.606 204.38 L 189.606 213.88 L 199.106 213.88 L 208.606 213.88 L 208.606 204.38 L 208.606 194.88 L 199.106 194.88 L 189.606 194.88 L 189.606 204.38 M 349.606 214.38 L 349.606 223.88 L 359.551 223.88 L 369.496 223.88 L 369.801 228.63 L 370.106 233.38 L 379.356 233.668 L 388.606 233.955 L 388.606 224.418 L 388.606 214.88 L 378.606 214.88 L 368.606 214.88 L 368.606 209.88 L 368.606 204.88 L 359.106 204.88 L 349.606 204.88 L 349.606 214.38 M 50.606 224.38 L 50.606 233.88 L 59.606 233.88 L 68.606 233.88 L 68.606 224.38 L 68.606 214.88 L 59.606 214.88 L 50.606 214.88 L 50.606 224.38 M 29.606 254.253 L 29.606 273.626 L 38.977 273.8 C 47.247 273.954 48.401 273.764 48.798 272.177 C 49.252 270.363 49.262 263.882 48.838 245.13 L 48.606 234.88 L 39.106 234.88 L 29.606 234.88 L 29.606 254.253 M 429.818 264.13 L 430.106 273.38 L 439.856 273.666 L 449.606 273.952 L 449.606 264.416 L 449.606 254.88 L 439.568 254.88 L 429.531 254.88 L 429.818 264.13 M 50.606 283.88 C 50.606 288.83 50.943 292.894 51.356 292.911 C 51.769 292.927 64.81 292.984 80.338 293.036 C 101.737 293.108 108.822 293.436 109.615 294.391 C 110.321 295.241 110.571 311.492 110.384 344.266 L 110.106 392.881 L 119.344 392.88 L 128.583 392.88 L 128.844 353.63 L 129.106 314.38 L 138.82 314.094 L 148.534 313.808 L 148.82 304.094 L 149.106 294.38 L 158.856 294.094 L 168.606 293.808 L 168.606 284.344 L 168.606 274.88 L 109.606 274.88 L 50.606 274.88 L 50.606 283.88 M 249.606 284.38 L 249.606 293.88 L 259.106 293.88 L 268.606 293.88 L 268.606 284.38 L 268.606 274.88 L 259.106 274.88 L 249.606 274.88 L 249.606 284.38 M 409.606 283.88 L 409.606 292.88 L 416.606 293.005 C 420.456 293.074 424.281 293.13 425.106 293.13 C 425.931 293.13 427.056 293.074 427.606 293.005 C 428.189 292.932 428.606 289.13 428.606 283.88 L 428.606 274.88 L 419.106 274.88 L 409.606 274.88 L 409.606 283.88 M 269.606 303.88 L 269.606 312.88 L 280.106 312.897 C 285.881 312.906 308.831 312.914 331.106 312.914 C 353.381 312.914 379.931 312.906 390.106 312.897 L 408.606 312.88 L 408.606 303.88 L 408.606 294.88 L 339.106 294.88 L 269.606 294.88 L 269.606 303.88 M 149.818 324.13 L 150.106 333.38 L 159.356 333.668 L 168.606 333.955 L 168.606 324.418 L 168.606 314.88 L 159.068 314.88 L 149.531 314.88 L 149.818 324.13 M 249.606 323.88 L 249.606 332.88 L 259.106 332.88 L 268.606 332.88 L 268.606 323.88 L 268.606 314.88 L 259.106 314.88 L 249.606 314.88 L 249.606 323.88 M 170.693 334.826 C 169.904 335.314 169.618 338.454 169.815 344.465 L 170.106 353.38 L 179.356 353.668 L 188.606 353.955 L 188.606 343.986 L 188.606 334.017 L 180.234 334.06 C 175.629 334.084 171.336 334.429 170.693 334.826 M 230.356 334.461 C 229.943 334.875 229.606 339.188 229.606 344.047 L 229.606 352.88 L 239.106 352.88 L 248.606 352.88 L 248.606 343.88 C 248.606 338.93 248.493 334.851 248.356 334.815 C 246.045 334.213 230.9 333.916 230.356 334.461 M 190.856 354.524 C 189.989 354.887 189.606 357.775 189.606 363.963 L 189.606 372.88 L 209.106 372.88 L 228.606 372.88 L 228.606 363.461 L 228.606 354.041 L 210.356 354.021 C 200.318 354.011 191.544 354.237 190.856 354.524 M 178.856 374.625 L 169.606 374.955 L 169.606 383.918 L 169.606 392.88 L 179.106 392.88 L 188.606 392.88 L 188.606 383.38 C 188.606 378.155 188.493 373.973 188.356 374.088 C 188.219 374.202 183.943 374.444 178.856 374.625 M 130.944 395.142 C 130.608 395.686 130.333 400.011 130.333 404.755 L 130.332 413.38 L 149.505 413.652 L 168.679 413.923 L 168.392 404.152 L 168.106 394.38 L 149.83 394.267 C 138.749 394.199 131.314 394.544 130.944 395.142" stroke="none" fill="#030303" fill-rule="evenodd"/>
  <path d="M 109.606 203.88 L 109.606 213.88 L 99.606 213.88 L 89.606 213.88 L 89.606 223.88 L 89.606 233.88 L 79.606 233.88 L 69.606 233.88 L 69.606 243.842 L 69.606 253.805 L 60.356 254.092 L 51.106 254.38 L 50.818 263.63 L 50.531 272.88 L 109.532 272.88 L 168.534 272.88 L 168.82 263.13 L 169.106 253.38 L 198.856 253.115 L 228.606 252.85 L 228.606 243.865 L 228.606 234.88 L 218.606 234.88 L 208.606 234.88 L 208.606 224.88 L 208.606 214.88 L 198.606 214.88 L 188.606 214.88 L 188.606 205.036 L 188.606 195.192 L 173.447 194.536 C 165.11 194.175 147.335 193.88 133.947 193.88 L 109.606 193.88 L 109.606 203.88 M 149.606 344.38 L 149.606 353.88 L 140.106 353.88 L 130.606 353.88 L 130.606 373.38 L 130.606 392.88 L 149.57 392.88 L 168.534 392.88 L 168.82 383.13 L 169.106 373.38 L 178.856 373.094 L 188.606 372.808 L 188.606 363.844 L 188.606 354.88 L 178.606 354.88 L 168.606 354.88 L 168.606 344.88 L 168.606 334.88 L 159.106 334.88 L 149.606 334.88 L 149.606 344.38" stroke="none" fill="#fb3c1f" fill-rule="evenodd"/>
  <path d="M 347.356 94.612 C 349.693 94.823 353.519 94.823 355.856 94.612 C 358.193 94.402 356.281 94.229 351.606 94.229 C 346.931 94.229 345.019 94.402 347.356 94.612 M 323.356 114.612 C 325.693 114.823 329.519 114.823 331.856 114.612 C 334.193 114.402 332.281 114.229 327.606 114.229 C 322.931 114.229 321.019 114.402 323.356 114.612 M 328.998 139.88 C 328.998 147.305 329.155 150.343 329.348 146.63 C 329.54 142.917 329.54 136.843 329.348 133.13 C 329.155 129.417 328.998 132.455 328.998 139.88 M 273.356 134.587 L 278.606 134.985 L 278.606 144.377 L 278.606 153.77 L 274.356 154.157 L 270.106 154.543 L 274.606 154.462 L 279.106 154.38 L 279.106 144.38 L 279.106 134.38 L 273.606 134.285 L 268.106 134.189 L 273.356 134.587 M 304.856 134.615 C 307.468 134.821 311.744 134.821 314.356 134.615 C 316.968 134.409 314.831 134.24 309.606 134.24 C 304.381 134.24 302.243 134.409 304.856 134.615 M 307.356 154.623 C 311.343 154.812 317.869 154.812 321.856 154.623 C 325.843 154.433 322.581 154.277 314.606 154.277 C 306.631 154.277 303.368 154.433 307.356 154.623 M 255.395 174.621 C 258.854 174.817 264.254 174.816 267.395 174.618 C 270.536 174.42 267.706 174.26 261.106 174.262 C 254.506 174.264 251.936 174.426 255.395 174.621 M 109.606 184.38 L 109.606 193.88 L 139.106 193.88 L 168.606 193.88 L 168.606 184.38 L 168.606 174.88 L 139.106 174.88 L 109.606 174.88 L 109.606 184.38 M 279.049 184.628 L 279.106 194.38 L 288.606 194.434 L 298.106 194.489 L 288.892 194.148 L 279.678 193.808 L 279.334 184.342 L 278.991 174.875 L 279.049 184.628 M 329.001 188.38 C 329.002 196.08 329.159 199.098 329.349 195.086 C 329.54 191.075 329.538 184.775 329.347 181.086 C 329.155 177.398 328.999 180.68 329.001 188.38 M 89.728 204.38 L 89.501 213.88 L 99.554 213.88 L 109.606 213.88 L 109.606 204.38 L 109.606 194.88 L 99.781 194.88 L 89.955 194.88 L 89.728 204.38 M 329.491 204.17 C 329.928 204.604 334.52 204.826 339.696 204.663 L 349.106 204.367 L 338.902 203.873 C 333.289 203.602 329.055 203.735 329.491 204.17 M 69.818 224.13 L 70.106 233.38 L 79.856 233.666 L 89.606 233.952 L 89.606 224.416 L 89.606 214.88 L 79.568 214.88 L 69.531 214.88 L 69.818 224.13 M 354.39 224.618 C 357.295 224.821 361.795 224.819 364.39 224.614 C 366.984 224.408 364.606 224.243 359.106 224.245 C 353.606 224.248 351.484 224.416 354.39 224.618 M 374.39 234.618 C 377.295 234.821 381.795 234.819 384.39 234.614 C 386.984 234.408 384.606 234.243 379.106 234.245 C 373.606 234.248 371.484 234.416 374.39 234.618 M 49.797 242.936 C 49.365 254.913 48.923 254.435 60.092 254.061 L 69.606 253.743 L 69.606 244.311 L 69.606 234.88 L 59.847 234.88 L 50.088 234.88 L 49.797 242.936 M 399.409 254.626 C 405.076 254.805 414.076 254.804 419.409 254.625 C 424.742 254.445 420.106 254.299 409.106 254.3 C 398.106 254.301 393.742 254.448 399.409 254.626 M 129.834 334.13 L 130.106 353.38 L 139.856 353.666 L 149.606 353.952 L 149.602 348.666 C 149.6 345.759 149.305 336.967 148.947 329.13 L 148.295 314.88 L 138.929 314.88 L 129.563 314.88 L 129.834 334.13" stroke="none" fill="#fc7523" fill-rule="evenodd"/>
  <path d="M 248.966 82.88 C 248.966 88.105 249.135 90.242 249.341 87.63 C 249.547 85.018 249.547 80.742 249.341 78.13 C 249.135 75.518 248.966 77.655 248.966 82.88 M 228.955 102.88 C 228.955 107.555 229.128 109.467 229.338 107.13 C 229.549 104.792 229.549 100.967 229.338 98.63 C 229.128 96.292 228.955 98.205 228.955 102.88 M 388.787 114.618 C 406.419 114.89 408.521 115.102 408.979 116.651 C 409.367 117.961 409.441 117.895 409.286 116.38 C 409.088 114.455 408.332 114.379 389.093 114.347 L 369.106 114.313 L 388.787 114.618 M 409.074 176.88 C 409.074 207.955 409.2 220.668 409.355 205.13 C 409.51 189.593 409.51 164.168 409.355 148.63 C 409.2 133.093 409.074 145.805 409.074 176.88 M 208.98 150.38 C 208.982 156.43 209.147 158.776 209.346 155.593 C 209.545 152.411 209.543 147.461 209.342 144.593 C 209.141 141.726 208.978 144.33 208.98 150.38 M 209.03 186.88 L 209.106 194.38 L 218.858 194.437 L 228.611 194.495 L 219.151 194.152 L 209.692 193.809 L 209.323 186.594 L 208.955 179.38 L 209.03 186.88 M 369.491 184.17 C 369.928 184.604 374.52 184.826 379.696 184.663 L 389.106 184.367 L 378.902 183.873 C 373.289 183.602 369.055 183.735 369.491 184.17 M 228.961 205.38 C 228.958 210.33 229.127 212.481 229.337 210.16 C 229.546 207.839 229.549 203.789 229.342 201.16 C 229.136 198.531 228.964 200.43 228.961 205.38 M 35.886 274.616 C 38.515 274.823 42.565 274.82 44.886 274.611 C 47.207 274.401 45.056 274.232 40.106 274.235 C 35.156 274.238 33.257 274.41 35.886 274.616 M 435.856 274.615 C 438.468 274.821 442.744 274.821 445.356 274.615 C 447.968 274.409 445.831 274.24 440.606 274.24 C 435.381 274.24 433.244 274.409 435.856 274.615 M 169.968 284.13 L 170.106 293.38 L 209.356 293.642 L 248.606 293.903 L 248.606 284.392 L 248.606 274.88 L 209.218 274.88 L 169.83 274.88 L 169.968 284.13 M 59.356 294.612 C 61.693 294.823 65.519 294.823 67.856 294.612 C 70.193 294.402 68.281 294.229 63.606 294.229 C 58.931 294.229 57.019 294.402 59.356 294.612 M 94.334 294.602 C 96.109 294.823 99.259 294.826 101.334 294.61 C 103.408 294.393 101.956 294.213 98.106 294.208 C 94.256 294.204 92.558 294.381 94.334 294.602 M 415.886 294.616 C 418.515 294.823 422.565 294.82 424.886 294.611 C 427.207 294.401 425.056 294.232 420.106 294.235 C 415.156 294.238 413.257 294.41 415.886 294.616 M 150.142 303.967 L 150.179 313.054 L 159.642 313.056 L 169.106 313.058 L 169.394 303.969 L 169.681 294.88 L 159.894 294.88 L 150.106 294.881 L 150.142 303.967" stroke="none" fill="#51c0f6" fill-rule="evenodd"/>
  <path d="M 355.382 124.613 C 357.734 124.825 361.334 124.822 363.382 124.607 C 365.43 124.392 363.506 124.219 359.106 124.223 C 354.706 124.226 353.03 124.402 355.382 124.613 M 209.356 274.624 L 248.606 274.903 L 248.606 284.399 L 248.606 293.895 L 199.466 293.861 C 172.439 293.842 150.089 294.063 149.8 294.353 C 149.51 294.643 153.874 294.88 159.498 294.88 L 169.723 294.88 L 169.601 304.13 C 169.533 309.217 169.507 317.993 169.542 323.63 L 169.606 333.88 L 179.606 333.88 L 189.606 333.88 L 189.606 343.901 L 189.606 353.922 L 209.356 353.651 L 229.106 353.38 L 229.198 343.88 L 229.291 334.38 L 239.115 333.88 L 248.938 333.38 L 249.022 323.88 L 249.106 314.38 L 259.106 313.88 C 266.251 313.523 269.077 313.023 269.006 312.13 C 268.951 311.443 268.839 307.055 268.756 302.38 L 268.606 293.88 L 259.142 293.88 L 249.678 293.88 L 249.392 284.13 L 249.106 274.38 L 209.606 274.363 L 170.106 274.346 L 209.356 274.624 M 155.356 313.612 C 157.693 313.823 161.519 313.823 163.856 313.612 C 166.193 313.402 164.281 313.229 159.606 313.229 C 154.931 313.229 153.019 313.402 155.356 313.612" stroke="none" fill="#1f9cde" fill-rule="evenodd"/>
  <path d="M 339.8 104.63 L 339.606 114.88 L 330.606 114.88 L 321.606 114.88 L 321.426 122.13 L 321.246 129.38 L 320.606 121.88 L 319.966 114.38 L 319.786 124.63 L 319.606 134.88 L 310.606 134.88 L 301.606 134.88 L 301.415 144.13 L 301.223 153.38 L 300.586 143.88 L 299.948 134.38 L 300.027 143.88 L 300.106 153.38 L 314.606 153.632 C 324.403 153.801 328.619 153.563 327.606 152.897 C 326.603 152.237 326.52 151.906 327.356 151.895 C 328.296 151.884 328.606 148.405 328.606 137.88 L 328.606 123.88 L 338.856 123.81 C 345.514 123.764 348.405 123.438 347.106 122.88 C 345.396 122.145 345.36 122.01 346.856 121.95 C 348.388 121.889 348.606 120.758 348.606 112.88 L 348.606 103.88 L 358.856 103.686 L 369.106 103.493 L 359.106 102.88 L 349.106 102.267 L 358.856 102.074 C 368.538 101.881 368.606 101.862 368.606 99.38 C 368.606 97.782 368.043 96.88 367.047 96.88 C 366.19 96.88 365.766 96.43 366.106 95.88 C 366.505 95.234 362.283 94.88 354.165 94.88 L 341.606 94.88 L 341.412 104.63 L 341.219 114.38 L 340.606 104.38 L 339.993 94.38 L 339.8 104.63 M 348.356 96.617 C 351.244 96.819 355.968 96.819 358.856 96.617 C 361.744 96.415 359.381 96.25 353.606 96.25 C 347.831 96.25 345.468 96.415 348.356 96.617 M 336.374 122.605 C 338.171 122.827 340.871 122.823 342.374 122.595 C 343.877 122.366 342.406 122.184 339.106 122.19 C 335.806 122.195 334.577 122.382 336.374 122.605 M 250.561 135.38 C 250.536 135.655 250.494 139.818 250.468 144.63 L 250.422 153.38 L 264.764 153.632 C 274.457 153.801 278.62 153.563 277.606 152.897 C 276.603 152.237 276.52 151.906 277.356 151.895 C 278.244 151.884 278.606 149.705 278.606 144.38 C 278.606 137.273 278.488 136.879 276.356 136.865 C 274.537 136.852 274.393 136.664 275.606 135.88 C 276.616 135.227 272.78 134.906 263.856 134.895 C 256.568 134.887 250.586 135.105 250.561 135.38 M 250.613 175.63 C 250.617 176.042 250.571 198.19 250.511 224.846 L 250.402 273.312 L 259.319 273.021 C 270.705 272.649 271.01 272.957 270.418 284.237 L 269.98 292.588 L 283.451 293.234 C 290.86 293.589 321.939 293.773 352.514 293.642 L 408.106 293.404 L 348.606 292.88 L 289.106 292.356 L 347.856 292.118 C 380.169 291.987 406.943 291.993 407.356 292.13 C 407.769 292.267 408.331 288.105 408.606 282.88 L 409.106 273.38 L 418.606 273.24 L 428.106 273.101 L 428.394 263.99 L 428.681 254.88 L 408.644 254.88 L 388.606 254.88 L 388.606 244.88 L 388.606 234.88 L 378.606 234.88 L 368.606 234.88 L 368.606 229.88 L 368.606 224.88 L 358.606 224.88 L 348.606 224.88 L 348.606 214.88 L 348.606 204.88 L 338.606 204.88 L 328.606 204.88 L 328.606 191.309 C 328.606 180.88 328.275 177.406 327.177 176.309 C 326.097 175.228 322.806 174.88 313.677 174.88 L 301.606 174.88 L 301.412 184.63 L 301.219 194.38 L 300.606 184.38 L 299.993 174.38 L 299.8 184.63 L 299.606 194.88 L 289.106 194.88 L 278.606 194.88 L 278.606 186.309 C 278.606 180.213 278.193 177.324 277.177 176.309 C 276.091 175.222 272.739 174.88 263.177 174.88 C 256.263 174.88 250.609 175.218 250.613 175.63" stroke="none" fill="#fbe0b5" fill-rule="evenodd"/>
  <path d="M 249.606 84.38 L 249.606 94.88 L 239.606 94.88 L 229.606 94.88 L 229.606 104.88 L 229.606 114.88 L 219.594 114.88 L 209.583 114.88 L 209.844 154.13 L 210.106 193.38 L 219.856 193.666 L 229.606 193.952 L 229.606 204.416 L 229.606 214.88 L 219.606 214.88 L 209.606 214.88 L 209.606 224.38 L 209.606 233.88 L 219.641 233.88 L 229.676 233.88 L 229.391 244.13 L 229.106 254.38 L 199.319 254.645 L 169.531 254.91 L 169.819 264.145 L 170.106 273.38 L 209.356 273.642 L 248.606 273.903 L 248.856 223.642 C 248.993 195.998 248.947 164.493 248.754 153.63 L 248.402 133.88 L 264.004 133.88 L 279.606 133.88 L 279.606 143.88 L 279.606 153.88 L 289.106 153.88 L 298.606 153.88 L 298.606 143.88 L 298.606 133.88 L 308.606 133.88 L 318.606 133.88 L 318.606 123.88 L 318.606 113.88 L 328.606 113.88 L 338.606 113.88 L 338.606 103.88 L 338.606 93.88 L 354.106 93.88 L 369.606 93.88 L 369.606 99.38 L 369.606 104.88 L 359.606 104.88 L 349.606 104.88 L 349.606 114.38 L 349.606 123.88 L 359.106 123.88 L 368.606 123.88 L 368.606 118.88 L 368.606 113.88 L 388.606 113.88 L 408.606 113.88 L 408.606 104.38 L 408.606 94.88 L 398.606 94.88 L 388.606 94.88 L 388.606 84.38 L 388.606 73.88 L 319.106 73.88 L 249.606 73.88 L 249.606 84.38 M 409.606 174.88 L 409.606 234.88 L 399.606 234.88 L 389.606 234.88 L 389.606 244.38 L 389.606 253.88 L 409.106 253.88 L 428.606 253.88 L 428.606 184.38 L 428.606 114.88 L 419.106 114.88 L 409.606 114.88 L 409.606 174.88 M 329.391 148.63 C 329.234 161.693 329.23 179.468 329.381 188.13 L 329.657 203.88 L 339.131 203.88 L 348.606 203.88 L 348.606 164.38 L 348.606 124.88 L 339.141 124.88 L 329.675 124.88 L 329.391 148.63 M 369.606 154.38 L 369.606 183.88 L 379.106 183.88 L 388.606 183.88 L 388.606 154.38 L 388.606 124.88 L 379.106 124.88 L 369.606 124.88 L 369.606 154.38 M 110.556 155.38 C 110.528 155.655 110.506 159.255 110.506 163.38 C 110.506 167.505 110.528 171.555 110.556 172.38 C 110.599 173.678 114.517 173.88 139.606 173.88 L 168.606 173.88 L 168.606 164.38 L 168.606 154.88 L 139.606 154.88 C 123.656 154.88 110.584 155.105 110.556 155.38 M 280.031 175.214 C 279.75 175.947 279.652 180.335 279.813 184.964 L 280.106 193.38 L 289.356 193.668 L 298.606 193.955 L 298.606 183.918 L 298.606 173.88 L 289.575 173.88 C 282.97 173.88 280.406 174.238 280.031 175.214 M 90.523 175.292 C 90.294 175.519 90.25 179.794 90.427 184.792 L 90.748 193.88 L 99.677 193.88 L 108.606 193.88 L 108.606 184.38 L 108.606 174.88 L 99.773 174.88 C 94.914 174.88 90.752 175.065 90.523 175.292 M 169.818 184.13 L 170.106 193.38 L 179.356 193.668 L 188.606 193.955 L 188.606 184.418 L 188.606 174.88 L 179.068 174.88 L 169.531 174.88 L 169.818 184.13 M 70.523 195.292 C 70.294 195.519 70.25 199.794 70.427 204.792 L 70.748 213.88 L 79.677 213.88 L 88.606 213.88 L 88.606 204.38 L 88.606 194.88 L 79.773 194.88 C 74.914 194.88 70.752 195.065 70.523 195.292 M 189.606 204.38 L 189.606 213.88 L 199.106 213.88 L 208.606 213.88 L 208.606 204.38 L 208.606 194.88 L 199.106 194.88 L 189.606 194.88 L 189.606 204.38 M 349.606 214.38 L 349.606 223.88 L 359.551 223.88 L 369.496 223.88 L 369.801 228.63 L 370.106 233.38 L 379.356 233.668 L 388.606 233.955 L 388.606 224.418 L 388.606 214.88 L 378.606 214.88 L 368.606 214.88 L 368.606 209.88 L 368.606 204.88 L 359.106 204.88 L 349.606 204.88 L 349.606 214.38 M 50.606 224.38 L 50.606 233.88 L 59.606 233.88 L 68.606 233.88 L 68.606 224.38 L 68.606 214.88 L 59.606 214.88 L 50.606 214.88 L 50.606 224.38 M 29.606 254.253 L 29.606 273.626 L 38.977 273.8 C 47.247 273.954 48.401 273.764 48.798 272.177 C 49.252 270.363 49.262 263.882 48.838 245.13 L 48.606 234.88 L 39.106 234.88 L 29.606 234.88 L 29.606 254.253 M 429.818 264.13 L 430.106 273.38 L 439.856 273.666 L 449.606 273.952 L 449.606 264.416 L 449.606 254.88 L 439.568 254.88 L 429.531 254.88 L 429.818 264.13 M 50.606 283.88 C 50.606 288.83 50.943 292.894 51.356 292.911 C 51.769 292.927 64.81 292.984 80.338 293.036 C 101.737 293.108 108.822 293.436 109.615 294.391 C 110.321 295.241 110.571 311.492 110.384 344.266 L 110.106 392.881 L 119.344 392.88 L 128.583 392.88 L 128.844 353.63 L 129.106 314.38 L 138.82 314.094 L 148.534 313.808 L 148.82 304.094 L 149.106 294.38 L 158.856 294.094 L 168.606 293.808 L 168.606 284.344 L 168.606 274.88 L 109.606 274.88 L 50.606 274.88 L 50.606 283.88 M 249.606 284.38 L 249.606 293.88 L 259.106 293.88 L 268.606 293.88 L 268.606 284.38 L 268.606 274.88 L 259.106 274.88 L 249.606 274.88 L 249.606 284.38 M 409.606 283.88 L 409.606 292.88 L 416.606 293.005 C 420.456 293.074 424.281 293.13 425.106 293.13 C 425.931 293.13 427.056 293.074 427.606 293.005 C 428.189 292.932 428.606 289.13 428.606 283.88 L 428.606 274.88 L 419.106 274.88 L 409.606 274.88 L 409.606 283.88 M 269.606 303.88 L 269.606 312.88 L 280.106 312.897 C 285.881 312.906 308.831 312.914 331.106 312.914 C 353.381 312.914 379.931 312.906 390.106 312.897 L 408.606 312.88 L 408.606 303.88 L 408.606 294.88 L 339.106 294.88 L 269.606 294.88 L 269.606 303.88 M 149.818 324.13 L 150.106 333.38 L 159.356 333.668 L 168.606 333.955 L 168.606 324.418 L 168.606 314.88 L 159.068 314.88 L 149.531 314.88 L 149.818 324.13 M 249.606 323.88 L 249.606 332.88 L 259.106 332.88 L 268.606 332.88 L 268.606 323.88 L 268.606 314.88 L 259.106 314.88 L 249.606 314.88 L 249.606 323.88 M 170.693 334.826 C 169.904 335.314 169.618 338.454 169.815 344.465 L 170.106 353.38 L 179.356 353.668 L 188.606 353.955 L 188.606 343.986 L 188.606 334.017 L 180.234 334.06 C 175.629 334.084 171.336 334.429 170.693 334.826 M 230.356 334.461 C 229.943 334.875 229.606 339.188 229.606 344.047 L 229.606 352.88 L 239.106 352.88 L 248.606 352.88 L 248.606 343.88 C 248.606 338.93 248.493 334.851 248.356 334.815 C 246.045 334.213 230.9 333.916 230.356 334.461 M 190.856 354.524 C 189.989 354.887 189.606 357.775 189.606 363.963 L 189.606 372.88 L 209.106 372.88 L 228.606 372.88 L 228.606 363.461 L 228.606 354.041 L 210.356 354.021 C 200.318 354.011 191.544 354.237 190.856 354.524 M 178.856 374.625 L 169.606 374.955 L 169.606 383.918 L 169.606 392.88 L 179.106 392.88 L 188.606 392.88 L 188.606 383.38 C 188.606 378.155 188.493 373.973 188.356 374.088 C 188.219 374.202 183.943 374.444 178.856 374.625 M 130.944 395.142 C 130.608 395.686 130.333 400.011 130.333 404.755 L 130.332 413.38 L 149.505 413.652 L 168.679 413.923 L 168.392 404.152 L 168.106 394.38 L 149.83 394.267 C 138.749 394.199 131.314 394.544 130.944 395.142" stroke="none" fill="#030303" fill-rule="evenodd"/>
  <path d="M 249.606 84.38 L 249.606 94.88 L 239.606 94.88 L 229.606 94.88 L 229.606 104.88 L 229.606 114.88 L 219.594 114.88 L 209.583 114.88 L 209.844 154.13 L 210.106 193.38 L 219.856 193.666 L 229.606 193.952 L 229.606 204.416 L 229.606 214.88 L 219.606 214.88 L 209.606 214.88 L 209.606 224.38 L 209.606 233.88 L 219.641 233.88 L 229.676 233.88 L 229.391 244.13 L 229.106 254.38 L 199.319 254.645 L 169.531 254.91 L 169.819 264.145 L 170.106 273.38 L 209.356 273.642 L 248.606 273.903 L 248.856 223.642 C 248.993 195.998 248.947 164.493 248.754 153.63 L 248.402 133.88 L 264.004 133.88 L 279.606 133.88 L 279.606 143.88 L 279.606 153.88 L 289.106 153.88 L 298.606 153.88 L 298.606 143.88 L 298.606 133.88 L 308.606 133.88 L 318.606 133.88 L 318.606 123.88 L 318.606 113.88 L 328.606 113.88 L 338.606 113.88 L 338.606 103.88 L 338.606 93.88 L 354.106 93.88 L 369.606 93.88 L 369.606 99.38 L 369.606 104.88 L 359.606 104.88 L 349.606 104.88 L 349.606 114.38 L 349.606 123.88 L 359.106 123.88 L 368.606 123.88 L 368.606 118.88 L 368.606 113.88 L 388.606 113.88 L 408.606 113.88 L 408.606 104.38 L 408.606 94.88 L 398.606 94.88 L 388.606 94.88 L 388.606 84.38 L 388.606 73.88 L 319.106 73.88 L 249.606 73.88 L 249.606 84.38 M 409.606 174.88 L 409.606 234.88 L 399.606 234.88 L 389.606 234.88 L 389.606 244.38 L 389.606 253.88 L 409.106 253.88 L 428.606 253.88 L 428.606 184.38 L 428.606 114.88 L 419.106 114.88 L 409.606 114.88 L 409.606 174.88 M 329.391 148.63 C 329.234 161.693 329.23 179.468 329.381 188.13 L 329.657 203.88 L 339.131 203.88 L 348.606 203.88 L 348.606 164.38 L 348.606 124.88 L 339.141 124.88 L 329.675 124.88 L 329.391 148.63 M 369.606 154.38 L 369.606 183.88 L 379.106 183.88 L 388.606 183.88 L 388.606 154.38 L 388.606 124.88 L 379.106 124.88 L 369.606 124.88 L 369.606 154.38 M 110.556 155.38 C 110.528 155.655 110.506 159.255 110.506 163.38 C 110.506 167.505 110.528 171.555 110.556 172.38 C 110.599 173.678 114.517 173.88 139.606 173.88 L 168.606 173.88 L 168.606 164.38 L 168.606 154.88 L 139.606 154.88 C 123.656 154.88 110.584 155.105 110.556 155.38 M 280.031 175.214 C 279.75 175.947 279.652 180.335 279.813 184.964 L 280.106 193.38 L 289.356 193.668 L 298.606 193.955 L 298.606 183.918 L 298.606 173.88 L 289.575 173.88 C 282.97 173.88 280.406 174.238 280.031 175.214 M 90.523 175.292 C 90.294 175.519 90.25 179.794 90.427 184.792 L 90.748 193.88 L 99.677 193.88 L 108.606 193.88 L 108.606 184.38 L 108.606 174.88 L 99.773 174.88 C 94.914 174.88 90.752 175.065 90.523 175.292 M 169.818 184.13 L 170.106 193.38 L 179.356 193.668 L 188.606 193.955 L 188.606 184.418 L 188.606 174.88 L 179.068 174.88 L 169.531 174.88 L 169.818 184.13 M 70.523 195.292 C 70.294 195.519 70.25 199.794 70.427 204.792 L 70.748 213.88 L 79.677 213.88 L 88.606 213.88 L 88.606 204.38 L 88.606 194.88 L 79.773 194.88 C 74.914 194.88 70.752 195.065 70.523 195.292 M 189.606 204.38 L 189.606 213.88 L 199.106 213.88 L 208.606 213.88 L 208.606 204.38 L 208.606 194.88 L 199.106 194.88 L 189.606 194.88 L 189.606 204.38 M 349.606 214.38 L 349.606 223.88 L 359.551 223.88 L 369.496 223.88 L 369.801 228.63 L 370.106 233.38 L 379.356 233.668 L 388.606 233.955 L 388.606 224.418 L 388.606 214.88 L 378.606 214.88 L 368.606 214.88 L 368.606 209.88 L 368.606 204.88 L 359.106 204.88 L 349.606 204.88 L 349.606 214.38 M 50.606 224.38 L 50.606 233.88 L 59.606 233.88 L 68.606 233.88 L 68.606 224.38 L 68.606 214.88 L 59.606 214.88 L 50.606 214.88 L 50.606 224.38 M 29.606 254.253 L 29.606 273.626 L 38.977 273.8 C 47.247 273.954 48.401 273.764 48.798 272.177 C 49.252 270.363 49.262 263.882 48.838 245.13 L 48.606 234.88 L 39.106 234.88 L 29.606 234.88 L 29.606 254.253 M 429.818 264.13 L 430.106 273.38 L 439.856 273.666 L 449.606 273.952 L 449.606 264.416 L 449.606 254.88 L 439.568 254.88 L 429.531 254.88 L 429.818 264.13 M 50.606 283.88 C 50.606 288.83 50.943 292.894 51.356 292.911 C 51.769 292.927 64.81 292.984 80.338 293.036 C 101.737 293.108 108.822 293.436 109.615 294.391 C 110.321 295.241 110.571 311.492 110.384 344.266 L 110.106 392.881 L 119.344 392.88 L 128.583 392.88 L 128.844 353.63 L 129.106 314.38 L 138.82 314.094 L 148.534 313.808 L 148.82 304.094 L 149.106 294.38 L 158.856 294.094 L 168.606 293.808 L 168.606 284.344 L 168.606 274.88 L 109.606 274.88 L 50.606 274.88 L 50.606 283.88 M 249.606 284.38 L 249.606 293.88 L 259.106 293.88 L 268.606 293.88 L 268.606 284.38 L 268.606 274.88 L 259.106 274.88 L 249.606 274.88 L 249.606 284.38 M 409.606 283.88 L 409.606 292.88 L 416.606 293.005 C 420.456 293.074 424.281 293.13 425.106 293.13 C 425.931 293.13 427.056 293.074 427.606 293.005 C 428.189 292.932 428.606 289.13 428.606 283.88 L 428.606 274.88 L 419.106 274.88 L 409.606 274.88 L 409.606 283.88 M 269.606 303.88 L 269.606 312.88 L 280.106 312.897 C 285.881 312.906 308.831 312.914 331.106 312.914 C 353.381 312.914 379.931 312.906 390.106 312.897 L 408.606 312.88 L 408.606 303.88 L 408.606 294.88 L 339.106 294.88 L 269.606 294.88 L 269.606 303.88 M 149.818 324.13 L 150.106 333.38 L 159.356 333.668 L 168.606 333.955 L 168.606 324.418 L 168.606 314.88 L 159.068 314.88 L 149.531 314.88 L 149.818 324.13 M 249.606 323.88 L 249.606 332.88 L 259.106 332.88 L 268.606 332.88 L 268.606 323.88 L 268.606 314.88 L 259.106 314.88 L 249.606 314.88 L 249.606 323.88 M 170.693 334.826 C 169.904 335.314 169.618 338.454 169.815 344.465 L 170.106 353.38 L 179.356 353.668 L 188.606 353.955 L 188.606 343.986 L 188.606 334.017 L 180.234 334.06 C 175.629 334.084 171.336 334.429 170.693 334.826 M 230.356 334.461 C 229.943 334.875 229.606 339.188 229.606 344.047 L 229.606 352.88 L 239.106 352.88 L 248.606 352.88 L 248.606 343.88 C 248.606 338.93 248.493 334.851 248.356 334.815 C 246.045 334.213 230.9 333.916 230.356 334.461 M 190.856 354.524 C 189.989 354.887 189.606 357.775 189.606 363.963 L 189.606 372.88 L 209.106 372.88 L 228.606 372.88 L 228.606 363.461 L 228.606 354.041 L 210.356 354.021 C 200.318 354.011 191.544 354.237 190.856 354.524 M 178.856 374.625 L 169.606 374.955 L 169.606 383.918 L 169.606 392.88 L 179.106 392.88 L 188.606 392.88 L 188.606 383.38 C 188.606 378.155 188.493 373.973 188.356 374.088 C 188.219 374.202 183.943 374.444 178.856 374.625 M 130.944 395.142 C 130.608 395.686 130.333 400.011 130.333 404.755 L 130.332 413.38 L 149.505 413.652 L 168.679 413.923 L 168.392 404.152 L 168.106 394.38 L 149.83 394.267 C 138.749 394.199 131.314 394.544 130.944 395.142" stroke="none" fill="#030303" fill-rule="evenodd"/>
  <path d="M 208.955 128.88 C 208.955 133.555 209.128 135.468 209.338 133.13 C 209.549 130.792 209.549 126.967 209.338 124.63 C 209.128 122.292 208.955 124.205 208.955 128.88 M 350.05 154.88 C 350.05 171.655 350.187 178.517 350.354 170.13 C 350.521 161.743 350.521 148.017 350.354 139.63 C 350.187 131.243 350.05 138.105 350.05 154.88 M 355.382 125.613 C 357.734 125.825 361.334 125.822 363.382 125.607 C 365.43 125.392 363.506 125.219 359.106 125.223 C 354.706 125.226 353.03 125.402 355.382 125.613 M 351.606 155.38 L 351.606 183.88 L 359.106 183.88 L 366.606 183.88 L 366.606 155.38 L 366.606 126.88 L 359.106 126.88 L 351.606 126.88 L 351.606 155.38 M 367.817 155.071 C 367.701 170.851 367.943 183.971 368.356 184.227 C 368.769 184.483 368.991 176.072 368.85 165.536 C 368.373 129.787 368.028 126.295 367.817 155.071 M 249.949 144.38 C 249.952 148.78 250.128 150.456 250.339 148.104 C 250.551 145.752 250.548 142.152 250.333 140.104 C 250.118 138.056 249.945 139.98 249.949 144.38 M 116.356 153.617 C 119.243 153.819 123.969 153.819 126.856 153.617 C 129.743 153.415 127.381 153.25 121.606 153.25 C 115.831 153.25 113.469 153.415 116.356 153.617 M 155.886 153.616 C 158.515 153.823 162.565 153.82 164.886 153.611 C 167.207 153.401 165.056 153.232 160.106 153.235 C 155.156 153.238 153.257 153.41 155.886 153.616 M 108.812 163.091 L 108.606 172.802 L 99.856 173.135 L 91.106 173.469 L 99.887 173.674 C 106.419 173.827 108.799 173.539 109.179 172.551 C 109.459 171.82 109.538 167.207 109.353 162.301 L 109.017 153.38 L 108.812 163.091 M 169.966 162.88 C 169.966 168.105 170.135 170.243 170.341 167.63 C 170.547 165.017 170.547 160.743 170.341 158.13 C 170.135 155.517 169.966 157.655 169.966 162.88 M 208.955 168.88 C 208.955 173.555 209.128 175.468 209.338 173.13 C 209.549 170.792 209.549 166.968 209.338 164.63 C 209.128 162.292 208.955 164.205 208.955 168.88 M 179.318 173.607 L 189.529 173.949 L 189.88 182.417 L 190.23 190.885 L 190.168 182.133 L 190.106 173.38 L 179.606 173.322 L 169.106 173.264 L 179.318 173.607 M 88.812 183.091 L 88.606 192.802 L 79.856 193.135 L 71.106 193.469 L 79.887 193.674 C 86.419 193.827 88.799 193.539 89.179 192.551 C 89.459 191.82 89.538 187.207 89.353 182.301 L 89.017 173.38 L 88.812 183.091 M 305.893 174.62 C 309.075 174.819 314.025 174.817 316.893 174.616 C 319.76 174.415 317.156 174.252 311.106 174.254 C 305.056 174.256 302.71 174.421 305.893 174.62 M 250.066 220.88 C 250.066 245.355 250.196 255.368 250.355 243.13 C 250.514 230.893 250.514 210.868 250.355 198.63 C 250.196 186.393 250.066 196.405 250.066 220.88 M 370.29 186.262 C 369.914 187.242 369.606 191.366 369.606 195.427 L 369.606 202.81 L 359.356 203.134 C 353.698 203.313 357.954 203.553 368.856 203.669 L 388.606 203.88 L 388.606 194.939 C 388.606 190.021 388.156 185.72 387.606 185.38 C 387.056 185.04 386.606 185.239 386.606 185.821 C 386.606 187.362 371.888 187.227 371.373 185.681 C 371.129 184.95 370.706 185.178 370.29 186.262 M 195.886 193.616 C 198.515 193.823 202.565 193.82 204.886 193.611 C 207.207 193.401 205.056 193.232 200.106 193.235 C 195.156 193.238 193.257 193.41 195.886 193.616 M 68.812 203.091 L 68.606 212.802 L 59.856 213.135 L 51.106 213.469 L 59.887 213.674 C 66.419 213.827 68.799 213.539 69.179 212.551 C 69.459 211.82 69.538 207.207 69.353 202.301 L 69.017 193.38 L 68.812 203.091 M 209.955 202.88 C 209.955 207.555 210.128 209.468 210.338 207.13 C 210.549 204.792 210.549 200.968 210.338 198.63 C 210.128 196.292 209.955 198.205 209.955 202.88 M 214.39 213.618 C 217.295 213.821 221.795 213.819 224.39 213.614 C 226.984 213.408 224.606 213.243 219.106 213.245 C 213.606 213.248 211.484 213.416 214.39 213.618 M 377.856 213.608 C 379.919 213.824 383.294 213.824 385.356 213.608 C 387.419 213.393 385.731 213.216 381.606 213.216 C 377.481 213.216 375.794 213.393 377.856 213.608 M 48.812 223.094 L 48.606 232.808 L 38.856 233.134 L 29.106 233.461 L 38.887 233.671 C 46.252 233.828 48.795 233.552 49.179 232.551 C 49.459 231.82 49.538 227.207 49.353 222.301 L 49.017 213.38 L 48.812 223.094 M 394.39 233.618 C 397.295 233.821 401.795 233.819 404.39 233.614 C 406.984 233.408 404.606 233.243 399.106 233.245 C 393.606 233.248 391.484 233.416 394.39 233.618 M 434.356 253.617 C 437.244 253.819 441.968 253.819 444.856 253.617 C 447.744 253.415 445.381 253.25 439.606 253.25 C 433.831 253.25 431.468 253.415 434.356 253.617 M 257.382 273.613 C 259.734 273.825 263.334 273.822 265.382 273.607 C 267.43 273.392 265.506 273.219 261.106 273.223 C 256.706 273.226 255.03 273.402 257.382 273.613 M 413.886 273.616 C 416.515 273.823 420.565 273.82 422.886 273.611 C 425.207 273.401 423.056 273.232 418.106 273.235 C 413.156 273.238 411.257 273.41 413.886 273.616 M 49.044 284.299 C 49.094 292.232 49.406 294.299 50.606 294.625 C 51.674 294.915 51.758 294.785 50.896 294.172 C 50.144 293.637 49.554 289.737 49.334 283.846 L 48.982 274.38 L 49.044 284.299 M 269.949 282.38 C 269.952 286.78 270.128 288.456 270.339 286.104 C 270.551 283.752 270.548 280.152 270.333 278.104 C 270.118 276.056 269.945 277.98 269.949 282.38 M 273.856 293.615 C 276.469 293.821 280.743 293.821 283.356 293.615 C 285.969 293.409 283.831 293.24 278.606 293.24 C 273.381 293.24 271.243 293.409 273.856 293.615 M 76.356 294.617 C 79.243 294.819 83.969 294.819 86.856 294.617 C 89.743 294.415 87.381 294.25 81.606 294.25 C 75.831 294.25 73.469 294.415 76.356 294.617 M 109.092 344.63 L 109.106 394.38 L 118.572 394.67 C 124.53 394.853 128.357 395.409 128.898 396.17 C 129.511 397.032 129.641 396.948 129.351 395.88 C 129.032 394.705 126.853 394.318 119.284 394.094 L 109.625 393.808 L 109.351 344.344 L 109.078 294.88 L 109.092 344.63 M 304.929 314.63 C 324.082 314.782 355.132 314.782 373.929 314.629 C 392.726 314.477 377.056 314.353 339.106 314.353 C 301.156 314.353 285.776 314.478 304.929 314.63 M 269.595 327.585 C 269.326 331.547 269.467 334.427 269.908 333.983 C 270.348 333.54 270.568 330.298 270.396 326.778 L 270.083 320.38 L 269.595 327.585 M 257.334 334.602 C 259.109 334.823 262.259 334.826 264.334 334.61 C 266.408 334.393 264.956 334.213 261.106 334.208 C 257.256 334.204 255.558 334.381 257.334 334.602 M 249.795 347.095 L 249.606 353.81 L 239.356 354.134 L 229.106 354.458 L 239.387 354.669 C 251.167 354.911 250.898 355.117 250.349 346.268 L 249.984 340.38 L 249.795 347.095 M 229.795 367.108 L 229.606 373.837 L 210.356 374.131 L 191.106 374.426 L 210.387 374.653 C 225.893 374.836 229.771 374.613 230.191 373.518 C 230.479 372.769 230.55 369.506 230.349 366.268 L 229.984 360.38 L 229.795 367.108 M 189.966 383.88 C 189.966 389.105 190.135 391.243 190.341 388.63 C 190.547 386.017 190.547 381.743 190.341 379.13 C 190.135 376.517 189.966 378.655 189.966 383.88 M 170.033 395.209 C 169.753 395.94 169.674 400.553 169.859 405.459 L 170.195 414.38 L 170.4 404.666 L 170.606 394.952 L 180.356 394.626 L 190.106 394.299 L 180.325 394.089 C 172.96 393.932 170.417 394.208 170.033 395.209 M 128.942 406.88 C 128.942 411.005 129.119 412.693 129.334 410.63 C 129.55 408.568 129.55 405.193 129.334 403.13 C 129.119 401.068 128.942 402.755 128.942 406.88" stroke="none" fill="#d6e6cc" fill-rule="evenodd"/>
  <path d="M 208.955 128.88 C 208.955 133.555 209.128 135.468 209.338 133.13 C 209.549 130.792 209.549 126.967 209.338 124.63 C 209.128 122.292 208.955 124.205 208.955 128.88 M 350.05 154.88 C 350.05 171.655 350.187 178.517 350.354 170.13 C 350.521 161.743 350.521 148.017 350.354 139.63 C 350.187 131.243 350.05 138.105 350.05 154.88 M 355.382 125.613 C 357.734 125.825 361.334 125.822 363.382 125.607 C 365.43 125.392 363.506 125.219 359.106 125.223 C 354.706 125.226 353.03 125.402 355.382 125.613 M 351.606 155.38 L 351.606 183.88 L 359.106 183.88 L 366.606 183.88 L 366.606 155.38 L 366.606 126.88 L 359.106 126.88 L 351.606 126.88 L 351.606 155.38 M 367.817 155.071 C 367.701 170.851 367.943 183.971 368.356 184.227 C 368.769 184.483 368.991 176.072 368.85 165.536 C 368.373 129.787 368.028 126.295 367.817 155.071 M 249.949 144.38 C 249.952 148.78 250.128 150.456 250.339 148.104 C 250.551 145.752 250.548 142.152 250.333 140.104 C 250.118 138.056 249.945 139.98 249.949 144.38 M 116.356 153.617 C 119.243 153.819 123.969 153.819 126.856 153.617 C 129.743 153.415 127.381 153.25 121.606 153.25 C 115.831 153.25 113.469 153.415 116.356 153.617 M 155.886 153.616 C 158.515 153.823 162.565 153.82 164.886 153.611 C 167.207 153.401 165.056 153.232 160.106 153.235 C 155.156 153.238 153.257 153.41 155.886 153.616 M 108.812 163.091 L 108.606 172.802 L 99.856 173.135 L 91.106 173.469 L 99.887 173.674 C 106.419 173.827 108.799 173.539 109.179 172.551 C 109.459 171.82 109.538 167.207 109.353 162.301 L 109.017 153.38 L 108.812 163.091 M 169.966 162.88 C 169.966 168.105 170.135 170.243 170.341 167.63 C 170.547 165.017 170.547 160.743 170.341 158.13 C 170.135 155.517 169.966 157.655 169.966 162.88 M 208.955 168.88 C 208.955 173.555 209.128 175.468 209.338 173.13 C 209.549 170.792 209.549 166.968 209.338 164.63 C 209.128 162.292 208.955 164.205 208.955 168.88 M 179.318 173.607 L 189.529 173.949 L 189.88 182.417 L 190.23 190.885 L 190.168 182.133 L 190.106 173.38 L 179.606 173.322 L 169.106 173.264 L 179.318 173.607 M 88.812 183.091 L 88.606 192.802 L 79.856 193.135 L 71.106 193.469 L 79.887 193.674 C 86.419 193.827 88.799 193.539 89.179 192.551 C 89.459 191.82 89.538 187.207 89.353 182.301 L 89.017 173.38 L 88.812 183.091 M 305.893 174.62 C 309.075 174.819 314.025 174.817 316.893 174.616 C 319.76 174.415 317.156 174.252 311.106 174.254 C 305.056 174.256 302.71 174.421 305.893 174.62 M 250.066 220.88 C 250.066 245.355 250.196 255.368 250.355 243.13 C 250.514 230.893 250.514 210.868 250.355 198.63 C 250.196 186.393 250.066 196.405 250.066 220.88 M 370.29 186.262 C 369.914 187.242 369.606 191.366 369.606 195.427 L 369.606 202.81 L 359.356 203.134 C 353.698 203.313 357.954 203.553 368.856 203.669 L 388.606 203.88 L 388.606 194.939 C 388.606 190.021 388.156 185.72 387.606 185.38 C 387.056 185.04 386.606 185.239 386.606 185.821 C 386.606 187.362 371.888 187.227 371.373 185.681 C 371.129 184.95 370.706 185.178 370.29 186.262 M 195.886 193.616 C 198.515 193.823 202.565 193.82 204.886 193.611 C 207.207 193.401 205.056 193.232 200.106 193.235 C 195.156 193.238 193.257 193.41 195.886 193.616 M 68.812 203.091 L 68.606 212.802 L 59.856 213.135 L 51.106 213.469 L 59.887 213.674 C 66.419 213.827 68.799 213.539 69.179 212.551 C 69.459 211.82 69.538 207.207 69.353 202.301 L 69.017 193.38 L 68.812 203.091 M 209.955 202.88 C 209.955 207.555 210.128 209.468 210.338 207.13 C 210.549 204.792 210.549 200.968 210.338 198.63 C 210.128 196.292 209.955 198.205 209.955 202.88 M 214.39 213.618 C 217.295 213.821 221.795 213.819 224.39 213.614 C 226.984 213.408 224.606 213.243 219.106 213.245 C 213.606 213.248 211.484 213.416 214.39 213.618 M 377.856 213.608 C 379.919 213.824 383.294 213.824 385.356 213.608 C 387.419 213.393 385.731 213.216 381.606 213.216 C 377.481 213.216 375.794 213.393 377.856 213.608 M 48.812 223.094 L 48.606 232.808 L 38.856 233.134 L 29.106 233.461 L 38.887 233.671 C 46.252 233.828 48.795 233.552 49.179 232.551 C 49.459 231.82 49.538 227.207 49.353 222.301 L 49.017 213.38 L 48.812 223.094 M 394.39 233.618 C 397.295 233.821 401.795 233.819 404.39 233.614 C 406.984 233.408 404.606 233.243 399.106 233.245 C 393.606 233.248 391.484 233.416 394.39 233.618 M 434.356 253.617 C 437.244 253.819 441.968 253.819 444.856 253.617 C 447.744 253.415 445.381 253.25 439.606 253.25 C 433.831 253.25 431.468 253.415 434.356 253.617 M 257.382 273.613 C 259.734 273.825 263.334 273.822 265.382 273.607 C 267.43 273.392 265.506 273.219 261.106 273.223 C 256.706 273.226 255.03 273.402 257.382 273.613 M 413.886 273.616 C 416.515 273.823 420.565 273.82 422.886 273.611 C 425.207 273.401 423.056 273.232 418.106 273.235 C 413.156 273.238 411.257 273.41 413.886 273.616 M 49.044 284.299 C 49.094 292.232 49.406 294.299 50.606 294.625 C 51.674 294.915 51.758 294.785 50.896 294.172 C 50.144 293.637 49.554 289.737 49.334 283.846 L 48.982 274.38 L 49.044 284.299 M 269.949 282.38 C 269.952 286.78 270.128 288.456 270.339 286.104 C 270.551 283.752 270.548 280.152 270.333 278.104 C 270.118 276.056 269.945 277.98 269.949 282.38 M 273.856 293.615 C 276.469 293.821 280.743 293.821 283.356 293.615 C 285.969 293.409 283.831 293.24 278.606 293.24 C 273.381 293.24 271.243 293.409 273.856 293.615 M 76.356 294.617 C 79.243 294.819 83.969 294.819 86.856 294.617 C 89.743 294.415 87.381 294.25 81.606 294.25 C 75.831 294.25 73.469 294.415 76.356 294.617 M 109.092 344.63 L 109.106 394.38 L 118.572 394.67 C 124.53 394.853 128.357 395.409 128.898 396.17 C 129.511 397.032 129.641 396.948 129.351 395.88 C 129.032 394.705 126.853 394.318 119.284 394.094 L 109.625 393.808 L 109.351 344.344 L 109.078 294.88 L 109.092 344.63 M 304.929 314.63 C 324.082 314.782 355.132 314.782 373.929 314.629 C 392.726 314.477 377.056 314.353 339.106 314.353 C 301.156 314.353 285.776 314.478 304.929 314.63 M 269.595 327.585 C 269.326 331.547 269.467 334.427 269.908 333.983 C 270.348 333.54 270.568 330.298 270.396 326.778 L 270.083 320.38 L 269.595 327.585 M 257.334 334.602 C 259.109 334.823 262.259 334.826 264.334 334.61 C 266.408 334.393 264.956 334.213 261.106 334.208 C 257.256 334.204 255.558 334.381 257.334 334.602 M 249.795 347.095 L 249.606 353.81 L 239.356 354.134 L 229.106 354.458 L 239.387 354.669 C 251.167 354.911 250.898 355.117 250.349 346.268 L 249.984 340.38 L 249.795 347.095 M 229.795 367.108 L 229.606 373.837 L 210.356 374.131 L 191.106 374.426 L 210.387 374.653 C 225.893 374.836 229.771 374.613 230.191 373.518 C 230.479 372.769 230.55 369.506 230.349 366.268 L 229.984 360.38 L 229.795 367.108 M 189.966 383.88 C 189.966 389.105 190.135 391.243 190.341 388.63 C 190.547 386.017 190.547 381.743 190.341 379.13 C 190.135 376.517 189.966 378.655 189.966 383.88 M 170.033 395.209 C 169.753 395.94 169.674 400.553 169.859 405.459 L 170.195 414.38 L 170.4 404.666 L 170.606 394.952 L 180.356 394.626 L 190.106 394.299 L 180.325 394.089 C 172.96 393.932 170.417 394.208 170.033 395.209 M 128.942 406.88 C 128.942 411.005 129.119 412.693 129.334 410.63 C 129.55 408.568 129.55 405.193 129.334 403.13 C 129.119 401.068 128.942 402.755 128.942 406.88" stroke="none" fill="#d6e6cc" fill-rule="evenodd"/>
  <path d="M 339.8 104.63 L 339.606 114.88 L 330.606 114.88 L 321.606 114.88 L 321.426 122.13 L 321.246 129.38 L 320.606 121.88 L 319.966 114.38 L 319.786 124.63 L 319.606 134.88 L 310.606 134.88 L 301.606 134.88 L 301.415 144.13 L 301.223 153.38 L 300.586 143.88 L 299.948 134.38 L 300.027 143.88 L 300.106 153.38 L 314.606 153.632 C 324.403 153.801 328.619 153.563 327.606 152.897 C 326.603 152.237 326.52 151.906 327.356 151.895 C 328.296 151.884 328.606 148.405 328.606 137.88 L 328.606 123.88 L 338.856 123.81 C 345.514 123.764 348.405 123.438 347.106 122.88 C 345.396 122.145 345.36 122.01 346.856 121.95 C 348.388 121.889 348.606 120.758 348.606 112.88 L 348.606 103.88 L 358.856 103.686 L 369.106 103.493 L 359.106 102.88 L 349.106 102.267 L 358.856 102.074 C 368.538 101.881 368.606 101.862 368.606 99.38 C 368.606 97.782 368.043 96.88 367.047 96.88 C 366.19 96.88 365.766 96.43 366.106 95.88 C 366.505 95.234 362.283 94.88 354.165 94.88 L 341.606 94.88 L 341.412 104.63 L 341.219 114.38 L 340.606 104.38 L 339.993 94.38 L 339.8 104.63 M 348.356 96.617 C 351.244 96.819 355.968 96.819 358.856 96.617 C 361.744 96.415 359.381 96.25 353.606 96.25 C 347.831 96.25 345.468 96.415 348.356 96.617 M 336.374 122.605 C 338.171 122.827 340.871 122.823 342.374 122.595 C 343.877 122.366 342.406 122.184 339.106 122.19 C 335.806 122.195 334.577 122.382 336.374 122.605 M 250.561 135.38 C 250.536 135.655 250.494 139.818 250.468 144.63 L 250.422 153.38 L 264.764 153.632 C 274.457 153.801 278.62 153.563 277.606 152.897 C 276.603 152.237 276.52 151.906 277.356 151.895 C 278.244 151.884 278.606 149.705 278.606 144.38 C 278.606 137.273 278.488 136.879 276.356 136.865 C 274.537 136.852 274.393 136.664 275.606 135.88 C 276.616 135.227 272.78 134.906 263.856 134.895 C 256.568 134.887 250.586 135.105 250.561 135.38 M 250.613 175.63 C 250.617 176.042 250.571 198.19 250.511 224.846 L 250.402 273.312 L 259.319 273.021 C 270.705 272.649 271.01 272.957 270.418 284.237 L 269.98 292.588 L 283.451 293.234 C 290.86 293.589 321.939 293.773 352.514 293.642 L 408.106 293.404 L 348.606 292.88 L 289.106 292.356 L 347.856 292.118 C 380.169 291.987 406.943 291.993 407.356 292.13 C 407.769 292.267 408.331 288.105 408.606 282.88 L 409.106 273.38 L 418.606 273.24 L 428.106 273.101 L 428.394 263.99 L 428.681 254.88 L 408.644 254.88 L 388.606 254.88 L 388.606 244.88 L 388.606 234.88 L 378.606 234.88 L 368.606 234.88 L 368.606 229.88 L 368.606 224.88 L 358.606 224.88 L 348.606 224.88 L 348.606 214.88 L 348.606 204.88 L 338.606 204.88 L 328.606 204.88 L 328.606 191.309 C 328.606 180.88 328.275 177.406 327.177 176.309 C 326.097 175.228 322.806 174.88 313.677 174.88 L 301.606 174.88 L 301.412 184.63 L 301.219 194.38 L 300.606 184.38 L 299.993 174.38 L 299.8 184.63 L 299.606 194.88 L 289.106 194.88 L 278.606 194.88 L 278.606 186.309 C 278.606 180.213 278.193 177.324 277.177 176.309 C 276.091 175.222 272.739 174.88 263.177 174.88 C 256.263 174.88 250.609 175.218 250.613 175.63" stroke="none" fill="#fbe0b5" fill-rule="evenodd"/>
  <path d="M 339.8 104.63 L 339.606 114.88 L 330.606 114.88 L 321.606 114.88 L 321.426 122.13 L 321.246 129.38 L 320.606 121.88 L 319.966 114.38 L 319.786 124.63 L 319.606 134.88 L 310.606 134.88 L 301.606 134.88 L 301.415 144.13 L 301.223 153.38 L 300.586 143.88 L 299.948 134.38 L 300.027 143.88 L 300.106 153.38 L 314.606 153.632 C 324.403 153.801 328.619 153.563 327.606 152.897 C 326.603 152.237 326.52 151.906 327.356 151.895 C 328.296 151.884 328.606 148.405 328.606 137.88 L 328.606 123.88 L 338.856 123.81 C 345.514 123.764 348.405 123.438 347.106 122.88 C 345.396 122.145 345.36 122.01 346.856 121.95 C 348.388 121.889 348.606 120.758 348.606 112.88 L 348.606 103.88 L 358.856 103.686 L 369.106 103.493 L 359.106 102.88 L 349.106 102.267 L 358.856 102.074 C 368.538 101.881 368.606 101.862 368.606 99.38 C 368.606 97.782 368.043 96.88 367.047 96.88 C 366.19 96.88 365.766 96.43 366.106 95.88 C 366.505 95.234 362.283 94.88 354.165 94.88 L 341.606 94.88 L 341.412 104.63 L 341.219 114.38 L 340.606 104.38 L 339.993 94.38 L 339.8 104.63 M 348.356 96.617 C 351.244 96.819 355.968 96.819 358.856 96.617 C 361.744 96.415 359.381 96.25 353.606 96.25 C 347.831 96.25 345.468 96.415 348.356 96.617 M 336.374 122.605 C 338.171 122.827 340.871 122.823 342.374 122.595 C 343.877 122.366 342.406 122.184 339.106 122.19 C 335.806 122.195 334.577 122.382 336.374 122.605 M 250.561 135.38 C 250.536 135.655 250.494 139.818 250.468 144.63 L 250.422 153.38 L 264.764 153.632 C 274.457 153.801 278.62 153.563 277.606 152.897 C 276.603 152.237 276.52 151.906 277.356 151.895 C 278.244 151.884 278.606 149.705 278.606 144.38 C 278.606 137.273 278.488 136.879 276.356 136.865 C 274.537 136.852 274.393 136.664 275.606 135.88 C 276.616 135.227 272.78 134.906 263.856 134.895 C 256.568 134.887 250.586 135.105 250.561 135.38 M 250.613 175.63 C 250.617 176.042 250.571 198.19 250.511 224.846 L 250.402 273.312 L 259.319 273.021 C 270.705 272.649 271.01 272.957 270.418 284.237 L 269.98 292.588 L 283.451 293.234 C 290.86 293.589 321.939 293.773 352.514 293.642 L 408.106 293.404 L 348.606 292.88 L 289.106 292.356 L 347.856 292.118 C 380.169 291.987 406.943 291.993 407.356 292.13 C 407.769 292.267 408.331 288.105 408.606 282.88 L 409.106 273.38 L 418.606 273.24 L 428.106 273.101 L 428.394 263.99 L 428.681 254.88 L 408.644 254.88 L 388.606 254.88 L 388.606 244.88 L 388.606 234.88 L 378.606 234.88 L 368.606 234.88 L 368.606 229.88 L 368.606 224.88 L 358.606 224.88 L 348.606 224.88 L 348.606 214.88 L 348.606 204.88 L 338.606 204.88 L 328.606 204.88 L 328.606 191.309 C 328.606 180.88 328.275 177.406 327.177 176.309 C 326.097 175.228 322.806 174.88 313.677 174.88 L 301.606 174.88 L 301.412 184.63 L 301.219 194.38 L 300.606 184.38 L 299.993 174.38 L 299.8 184.63 L 299.606 194.88 L 289.106 194.88 L 278.606 194.88 L 278.606 186.309 C 278.606 180.213 278.193 177.324 277.177 176.309 C 276.091 175.222 272.739 174.88 263.177 174.88 C 256.263 174.88 250.609 175.218 250.613 175.63" stroke="none" fill="#fbe0b5" fill-rule="evenodd"/>
  <path d="M 388.817 84.13 L 388.606 94.88 L 398.606 94.88 L 408.606 94.88 L 408.606 104.88 L 408.606 114.88 L 418.606 114.88 L 428.606 114.88 L 428.606 194.344 L 428.606 273.808 L 418.856 274.094 L 409.106 274.38 L 409.048 282.88 L 408.989 291.38 L 409.338 283.064 L 409.686 274.749 L 419.648 275.064 C 425.806 275.259 429.634 274.998 429.672 274.38 C 429.706 273.83 429.679 269.234 429.612 264.166 L 429.49 254.951 L 439.798 254.627 L 450.106 254.302 L 439.863 254.091 L 429.62 253.88 L 429.363 184.13 L 429.106 114.38 L 419.392 114.094 L 409.678 113.808 L 409.392 104.094 L 409.106 94.38 L 399.391 94.094 L 389.675 93.808 L 389.351 83.594 L 389.028 73.38 L 388.817 84.13 M 234.356 94.617 C 237.243 94.819 241.969 94.819 244.856 94.617 C 247.743 94.415 245.381 94.25 239.606 94.25 C 233.831 94.25 231.469 94.415 234.356 94.617 M 338.766 104.13 C 338.933 114.793 339.362 113.583 339.832 101.128 C 339.983 97.139 339.769 93.877 339.356 93.878 C 338.943 93.879 338.678 98.492 338.766 104.13 M 359.106 103.824 L 349.106 104.38 L 349.045 112.38 L 348.985 120.38 L 349.336 112.63 L 349.687 104.88 L 359.646 104.88 C 365.619 104.88 369.606 104.48 369.606 103.88 C 369.606 103.33 369.494 102.967 369.356 103.074 C 369.218 103.18 364.606 103.518 359.106 103.824 M 214.356 114.617 C 217.243 114.819 221.969 114.819 224.856 114.617 C 227.743 114.415 225.381 114.25 219.606 114.25 C 213.831 114.25 211.469 114.415 214.356 114.617 M 318.976 123.88 C 318.976 129.655 319.141 132.017 319.343 129.13 C 319.545 126.242 319.545 121.518 319.343 118.63 C 319.141 115.742 318.976 118.105 318.976 123.88 M 368.791 119.13 L 368.606 124.88 L 378.591 124.88 L 388.576 124.88 L 388.864 154.63 L 389.152 184.38 L 389.129 154.38 L 389.106 124.38 L 379.407 124.094 L 369.708 123.809 L 369.342 118.594 L 368.976 113.38 L 368.791 119.13 M 329.065 124.947 C 328.702 125.533 328.676 126.283 329.006 126.613 C 329.336 126.943 329.606 126.688 329.606 126.047 C 329.606 125.24 332.535 124.88 339.106 124.88 L 348.606 124.88 L 348.815 174.63 C 348.93 201.993 349.172 219.993 349.352 214.63 L 349.678 204.88 L 359.142 204.88 L 368.606 204.88 L 368.606 209.88 L 368.606 214.88 L 378.606 214.88 L 388.606 214.88 L 388.815 234.63 C 388.93 245.493 389.172 249.993 389.352 244.63 L 389.678 234.88 L 399.642 234.88 C 405.122 234.88 409.607 234.542 409.608 234.13 C 409.609 233.718 405.126 233.522 399.645 233.696 L 389.68 234.011 L 389.393 224.196 L 389.106 214.38 L 379.409 214.094 L 369.713 213.809 L 369.409 209.094 L 369.106 204.38 L 359.334 204.094 L 349.562 203.807 L 349.834 163.843 L 350.106 123.879 L 339.915 123.88 C 333.776 123.88 329.462 124.304 329.065 124.947 M 369.047 154.88 C 369.047 170.555 369.185 176.967 369.354 169.13 C 369.523 161.292 369.523 148.467 369.354 140.63 C 369.185 132.792 369.047 139.205 369.047 154.88 M 248.743 204.38 L 248.513 274.88 L 258.56 274.88 L 268.606 274.88 L 268.81 293.13 C 268.921 303.168 269.165 307.668 269.35 303.13 L 269.687 294.88 L 339.146 294.88 L 408.606 294.88 L 408.606 303.858 L 408.606 312.836 L 390.105 313.142 L 371.604 313.448 L 390.355 313.414 L 409.106 313.38 L 409.392 303.673 L 409.677 293.966 L 416.892 293.673 C 420.86 293.512 389.343 293.531 346.856 293.715 L 269.606 294.05 L 269.606 283.965 L 269.606 273.88 L 259.606 273.88 L 249.606 273.88 L 249.606 223.89 L 249.606 173.9 L 274.072 173.937 L 298.537 173.974 L 298.861 184.177 L 299.184 194.38 L 299.395 184.08 L 299.606 173.78 L 314.5 174.08 L 329.395 174.38 L 329.51 163.38 C 329.575 157.167 329.261 152.937 328.789 153.659 C 328.16 154.62 324.487 154.869 314.029 154.659 L 300.106 154.38 L 300.106 144.129 C 300.106 138.49 299.769 133.878 299.356 133.879 C 298.943 133.879 298.606 138.38 298.606 143.88 L 298.606 153.88 L 288.356 154.064 C 282.719 154.166 271.806 154.159 264.106 154.05 L 250.106 153.852 L 250.106 143.864 C 250.106 138.372 249.851 133.878 249.539 133.879 C 249.228 133.879 248.87 165.605 248.743 204.38 M 255.886 134.616 C 258.515 134.823 262.565 134.82 264.886 134.611 C 267.207 134.401 265.056 134.232 260.106 134.235 C 255.156 134.238 253.257 134.41 255.886 134.616 M 109.605 154.615 C 109.605 155.036 122.88 155.254 139.105 155.101 L 168.606 154.822 L 168.606 164.851 L 168.606 174.88 L 178.606 174.88 L 188.606 174.88 L 188.606 184.88 L 188.606 194.88 L 198.606 194.88 L 208.606 194.88 L 208.606 204.88 L 208.606 214.88 L 219.356 214.669 L 230.106 214.458 L 219.792 214.133 L 209.479 213.809 L 209.792 203.594 L 210.106 193.38 L 199.893 193.694 L 189.68 194.007 L 189.393 184.194 L 189.106 174.38 L 179.392 174.094 L 169.678 173.808 L 169.392 164.094 L 169.106 154.38 L 139.356 154.115 C 122.993 153.969 109.606 154.194 109.605 154.615 M 109.934 163.38 C 109.939 167.23 110.119 168.682 110.336 166.608 C 110.552 164.533 110.549 161.383 110.328 159.608 C 110.107 157.832 109.93 159.53 109.934 163.38 M 109.606 172.213 C 109.606 173.658 108.273 173.88 99.606 173.88 C 94.106 173.88 89.605 174.218 89.604 174.63 C 89.603 175.042 93.878 175.237 99.104 175.061 L 108.606 174.743 L 108.768 184.561 L 108.931 194.38 L 109.607 182.88 C 109.98 176.555 110.132 171.193 109.945 170.963 C 109.759 170.734 109.606 171.297 109.606 172.213 M 89.791 185.13 L 89.606 193.88 L 79.606 193.88 C 74.106 193.88 69.605 194.218 69.604 194.63 C 69.603 195.042 73.878 195.237 79.104 195.061 L 88.606 194.743 L 88.752 204.561 L 88.898 214.38 L 89.768 200.38 C 90.246 192.68 90.489 184.13 90.307 181.38 C 90.112 178.436 89.9 179.979 89.791 185.13 M 69.791 205.13 L 69.606 213.88 L 59.606 213.88 L 49.606 213.88 L 49.606 223.88 L 49.606 233.88 L 39.356 234.089 L 29.106 234.299 L 38.856 234.626 L 48.606 234.952 L 48.777 245.166 C 48.908 253.056 49.166 250.773 49.909 235.13 L 50.87 214.88 L 59.738 214.88 L 68.606 214.88 L 68.752 224.63 C 68.898 234.378 68.898 234.376 69.768 220.38 C 70.246 212.68 70.489 204.13 70.307 201.38 C 70.112 198.436 69.9 199.979 69.791 205.13 M 368.722 228.63 C 368.658 231.517 368.966 233.88 369.405 233.88 C 369.845 233.88 370.044 232.193 369.848 230.13 C 369.236 223.699 368.843 223.175 368.722 228.63 M 199.106 253.88 L 169.106 254.425 L 198.797 254.652 C 217.762 254.798 228.711 254.519 229.106 253.88 C 229.446 253.33 229.585 252.982 229.415 253.108 C 229.245 253.233 215.606 253.58 199.106 253.88 M 49.235 274.255 C 49.439 275.836 49.606 280.899 49.606 285.505 C 49.606 292.845 49.822 293.87 51.356 293.801 C 52.401 293.754 52.603 293.519 51.856 293.218 C 50.987 292.867 50.606 289.994 50.606 283.797 L 50.606 274.88 L 109.57 274.88 L 168.534 274.88 L 168.826 284.63 L 169.118 294.38 L 169.612 283.88 L 170.106 273.38 L 109.934 273.653 C 61.933 273.87 49.671 273.668 49.313 272.653 C 49.066 271.953 49.031 272.674 49.235 274.255 M 428.805 284.547 C 428.672 289.985 428.188 292.882 427.356 293.218 C 426.377 293.613 426.384 293.739 427.387 293.801 C 429.334 293.921 429.733 291.887 429.352 283.786 L 429.003 276.38 L 428.805 284.547 M 64.356 293.625 C 69.443 293.807 77.768 293.807 82.856 293.625 C 87.943 293.444 83.781 293.295 73.606 293.295 C 63.431 293.295 59.268 293.444 64.356 293.625 M 107.856 293.96 C 109.479 294.905 109.623 298.478 109.846 343.18 L 110.086 391.38 L 110.356 343.494 C 110.626 295.502 110.461 292.823 107.234 292.91 C 106.613 292.927 106.894 293.399 107.856 293.96 M 148.815 304.63 L 148.606 314.88 L 158.606 314.88 L 168.606 314.88 L 168.606 324.88 C 168.606 333.767 168.801 334.871 170.356 334.801 C 171.401 334.754 171.603 334.519 170.856 334.218 C 169.974 333.862 169.606 330.794 169.606 323.797 L 169.606 313.88 L 159.642 313.88 L 149.678 313.88 L 149.352 304.13 L 149.025 294.38 L 148.815 304.63 M 259.106 313.824 C 249.311 314.369 249.103 314.431 248.942 316.88 C 248.798 319.083 248.836 319.113 249.262 317.13 C 249.721 314.99 250.206 314.88 259.176 314.88 L 268.606 314.88 L 268.606 323.88 L 268.606 332.88 L 258.856 332.95 C 253.493 332.989 248.206 333.407 247.106 333.88 C 245.396 334.615 245.36 334.75 246.856 334.81 C 248.388 334.871 248.606 336.002 248.606 343.88 L 248.606 352.88 L 238.606 352.88 L 228.606 352.88 L 228.606 362.88 L 228.606 372.88 L 208.606 372.88 L 188.606 372.88 L 188.606 382.88 L 188.606 392.88 L 178.665 392.88 C 173.197 392.88 168.585 393.217 168.415 393.63 C 168.245 394.043 168.356 398.88 168.662 404.38 L 169.219 414.38 L 169.412 404.13 L 169.606 393.88 L 179.606 393.88 L 189.606 393.88 L 189.606 383.88 L 189.606 373.88 L 209.606 373.88 L 229.606 373.88 L 229.606 363.88 L 229.606 353.88 L 239.606 353.88 L 249.606 353.88 L 249.606 343.88 L 249.606 333.88 L 259.606 333.88 L 269.606 333.88 L 269.606 323.914 L 269.606 313.948 L 280.356 313.626 L 291.106 313.305 L 280.106 313.286 C 274.056 313.276 264.606 313.518 259.106 313.824 M 301.409 313.626 C 307.076 313.805 316.076 313.804 321.409 313.625 C 326.742 313.445 322.106 313.299 311.106 313.3 C 300.106 313.301 295.742 313.448 301.409 313.626 M 341.409 313.626 C 347.076 313.805 356.076 313.804 361.409 313.625 C 366.742 313.445 362.106 313.299 351.106 313.3 C 340.106 313.301 335.742 313.448 341.409 313.626 M 128.844 353.63 L 128.606 392.88 L 118.856 393.088 L 109.106 393.295 L 118.552 393.628 C 123.747 393.811 128.545 394.414 129.213 394.969 C 130.033 395.649 130.639 395.636 131.076 394.929 C 131.432 394.352 131.253 393.88 130.676 393.88 C 129.969 393.88 129.54 380.992 129.356 354.13 L 129.082 314.38 L 128.844 353.63 M 248.916 325.38 C 248.921 328.68 249.108 329.909 249.331 328.112 C 249.553 326.315 249.549 323.615 249.321 322.112 C 249.092 320.609 248.91 322.08 248.916 325.38 M 188.815 344.13 C 188.627 353.786 188.784 354.878 190.356 354.865 C 191.558 354.854 191.727 354.608 190.895 354.08 C 190.119 353.586 189.565 349.73 189.354 343.345 L 189.025 333.38 L 188.815 344.13 M 173.856 374.615 C 176.469 374.821 180.743 374.821 183.356 374.615 C 185.969 374.409 183.831 374.24 178.606 374.24 C 173.381 374.24 171.243 374.409 173.856 374.615 M 129.934 404.38 C 129.939 408.23 130.119 409.682 130.336 407.608 C 130.552 405.533 130.549 402.383 130.328 400.608 C 130.107 398.832 129.93 400.53 129.934 404.38" stroke="none" fill="#52364c" fill-rule="evenodd"/>
  <path d="M 249.606 84.38 L 249.606 94.88 L 239.606 94.88 L 229.606 94.88 L 229.606 104.88 L 229.606 114.88 L 219.594 114.88 L 209.583 114.88 L 209.844 154.13 L 210.106 193.38 L 219.856 193.666 L 229.606 193.952 L 229.606 204.416 L 229.606 214.88 L 219.606 214.88 L 209.606 214.88 L 209.606 224.38 L 209.606 233.88 L 219.641 233.88 L 229.676 233.88 L 229.391 244.13 L 229.106 254.38 L 199.319 254.645 L 169.531 254.91 L 169.819 264.145 L 170.106 273.38 L 209.356 273.642 L 248.606 273.903 L 248.856 223.642 C 248.993 195.998 248.947 164.493 248.754 153.63 L 248.402 133.88 L 264.004 133.88 L 279.606 133.88 L 279.606 143.88 L 279.606 153.88 L 289.106 153.88 L 298.606 153.88 L 298.606 143.88 L 298.606 133.88 L 308.606 133.88 L 318.606 133.88 L 318.606 123.88 L 318.606 113.88 L 328.606 113.88 L 338.606 113.88 L 338.606 103.88 L 338.606 93.88 L 354.106 93.88 L 369.606 93.88 L 369.606 99.38 L 369.606 104.88 L 359.606 104.88 L 349.606 104.88 L 349.606 114.38 L 349.606 123.88 L 359.106 123.88 L 368.606 123.88 L 368.606 118.88 L 368.606 113.88 L 388.606 113.88 L 408.606 113.88 L 408.606 104.38 L 408.606 94.88 L 398.606 94.88 L 388.606 94.88 L 388.606 84.38 L 388.606 73.88 L 319.106 73.88 L 249.606 73.88 L 249.606 84.38 M 409.606 174.88 L 409.606 234.88 L 399.606 234.88 L 389.606 234.88 L 389.606 244.38 L 389.606 253.88 L 409.106 253.88 L 428.606 253.88 L 428.606 184.38 L 428.606 114.88 L 419.106 114.88 L 409.606 114.88 L 409.606 174.88 M 329.391 148.63 C 329.234 161.693 329.23 179.468 329.381 188.13 L 329.657 203.88 L 339.131 203.88 L 348.606 203.88 L 348.606 164.38 L 348.606 124.88 L 339.141 124.88 L 329.675 124.88 L 329.391 148.63 M 369.606 154.38 L 369.606 183.88 L 379.106 183.88 L 388.606 183.88 L 388.606 154.38 L 388.606 124.88 L 379.106 124.88 L 369.606 124.88 L 369.606 154.38 M 110.556 155.38 C 110.528 155.655 110.506 159.255 110.506 163.38 C 110.506 167.505 110.528 171.555 110.556 172.38 C 110.599 173.678 114.517 173.88 139.606 173.88 L 168.606 173.88 L 168.606 164.38 L 168.606 154.88 L 139.606 154.88 C 123.656 154.88 110.584 155.105 110.556 155.38 M 280.031 175.214 C 279.75 175.947 279.652 180.335 279.813 184.964 L 280.106 193.38 L 289.356 193.668 L 298.606 193.955 L 298.606 183.918 L 298.606 173.88 L 289.575 173.88 C 282.97 173.88 280.406 174.238 280.031 175.214 M 90.523 175.292 C 90.294 175.519 90.25 179.794 90.427 184.792 L 90.748 193.88 L 99.677 193.88 L 108.606 193.88 L 108.606 184.38 L 108.606 174.88 L 99.773 174.88 C 94.914 174.88 90.752 175.065 90.523 175.292 M 169.818 184.13 L 170.106 193.38 L 179.356 193.668 L 188.606 193.955 L 188.606 184.418 L 188.606 174.88 L 179.068 174.88 L 169.531 174.88 L 169.818 184.13 M 70.523 195.292 C 70.294 195.519 70.25 199.794 70.427 204.792 L 70.748 213.88 L 79.677 213.88 L 88.606 213.88 L 88.606 204.38 L 88.606 194.88 L 79.773 194.88 C 74.914 194.88 70.752 195.065 70.523 195.292 M 189.606 204.38 L 189.606 213.88 L 199.106 213.88 L 208.606 213.88 L 208.606 204.38 L 208.606 194.88 L 199.106 194.88 L 189.606 194.88 L 189.606 204.38 M 349.606 214.38 L 349.606 223.88 L 359.551 223.88 L 369.496 223.88 L 369.801 228.63 L 370.106 233.38 L 379.356 233.668 L 388.606 233.955 L 388.606 224.418 L 388.606 214.88 L 378.606 214.88 L 368.606 214.88 L 368.606 209.88 L 368.606 204.88 L 359.106 204.88 L 349.606 204.88 L 349.606 214.38 M 50.606 224.38 L 50.606 233.88 L 59.606 233.88 L 68.606 233.88 L 68.606 224.38 L 68.606 214.88 L 59.606 214.88 L 50.606 214.88 L 50.606 224.38 M 29.606 254.253 L 29.606 273.626 L 38.977 273.8 C 47.247 273.954 48.401 273.764 48.798 272.177 C 49.252 270.363 49.262 263.882 48.838 245.13 L 48.606 234.88 L 39.106 234.88 L 29.606 234.88 L 29.606 254.253 M 429.818 264.13 L 430.106 273.38 L 439.856 273.666 L 449.606 273.952 L 449.606 264.416 L 449.606 254.88 L 439.568 254.88 L 429.531 254.88 L 429.818 264.13 M 50.606 283.88 C 50.606 288.83 50.943 292.894 51.356 292.911 C 51.769 292.927 64.81 292.984 80.338 293.036 C 101.737 293.108 108.822 293.436 109.615 294.391 C 110.321 295.241 110.571 311.492 110.384 344.266 L 110.106 392.881 L 119.344 392.88 L 128.583 392.88 L 128.844 353.63 L 129.106 314.38 L 138.82 314.094 L 148.534 313.808 L 148.82 304.094 L 149.106 294.38 L 158.856 294.094 L 168.606 293.808 L 168.606 284.344 L 168.606 274.88 L 109.606 274.88 L 50.606 274.88 L 50.606 283.88 M 249.606 284.38 L 249.606 293.88 L 259.106 293.88 L 268.606 293.88 L 268.606 284.38 L 268.606 274.88 L 259.106 274.88 L 249.606 274.88 L 249.606 284.38 M 409.606 283.88 L 409.606 292.88 L 416.606 293.005 C 420.456 293.074 424.281 293.13 425.106 293.13 C 425.931 293.13 427.056 293.074 427.606 293.005 C 428.189 292.932 428.606 289.13 428.606 283.88 L 428.606 274.88 L 419.106 274.88 L 409.606 274.88 L 409.606 283.88 M 269.606 303.88 L 269.606 312.88 L 280.106 312.897 C 285.881 312.906 308.831 312.914 331.106 312.914 C 353.381 312.914 379.931 312.906 390.106 312.897 L 408.606 312.88 L 408.606 303.88 L 408.606 294.88 L 339.106 294.88 L 269.606 294.88 L 269.606 303.88 M 149.818 324.13 L 150.106 333.38 L 159.356 333.668 L 168.606 333.955 L 168.606 324.418 L 168.606 314.88 L 159.068 314.88 L 149.531 314.88 L 149.818 324.13 M 249.606 323.88 L 249.606 332.88 L 259.106 332.88 L 268.606 332.88 L 268.606 323.88 L 268.606 314.88 L 259.106 314.88 L 249.606 314.88 L 249.606 323.88 M 170.693 334.826 C 169.904 335.314 169.618 338.454 169.815 344.465 L 170.106 353.38 L 179.356 353.668 L 188.606 353.955 L 188.606 343.986 L 188.606 334.017 L 180.234 334.06 C 175.629 334.084 171.336 334.429 170.693 334.826 M 230.356 334.461 C 229.943 334.875 229.606 339.188 229.606 344.047 L 229.606 352.88 L 239.106 352.88 L 248.606 352.88 L 248.606 343.88 C 248.606 338.93 248.493 334.851 248.356 334.815 C 246.045 334.213 230.9 333.916 230.356 334.461 M 190.856 354.524 C 189.989 354.887 189.606 357.775 189.606 363.963 L 189.606 372.88 L 209.106 372.88 L 228.606 372.88 L 228.606 363.461 L 228.606 354.041 L 210.356 354.021 C 200.318 354.011 191.544 354.237 190.856 354.524 M 178.856 374.625 L 169.606 374.955 L 169.606 383.918 L 169.606 392.88 L 179.106 392.88 L 188.606 392.88 L 188.606 383.38 C 188.606 378.155 188.493 373.973 188.356 374.088 C 188.219 374.202 183.943 374.444 178.856 374.625 M 130.944 395.142 C 130.608 395.686 130.333 400.011 130.333 404.755 L 130.332 413.38 L 149.505 413.652 L 168.679 413.923 L 168.392 404.152 L 168.106 394.38 L 149.83 394.267 C 138.749 394.199 131.314 394.544 130.944 395.142" stroke="none" fill="#030303" fill-rule="evenodd"/>
</svg>